<svg width="720" height="120" viewBox="0 0 720 120" fill="none" xmlns="http://www.w3.org/2000/svg">
<g clip-path="url(#clip0_707_141)">
<path fill-rule="evenodd" clip-rule="evenodd" d="M63.01 3.73H64.94V1.87H63.01V3.73ZM59.15 3.73H61.08V1.87H59.15V3.73ZM65.75 15.35H58.27L62.05 7.22L65.75 15.35ZM63.11 5.20999H60.95H60.94L52.71 22.91H54.72L57.53 16.95H66.49L69.28 22.91H71.39L63.11 5.20999ZM35.51 5.21002H33.58V22.91H35.51V14.61H45.49V22.91H47.42V5.21002H45.49V13.01H35.51V5.21002ZM76.71 5.21002H79.68L86.69 20.28L93.72 5.21002H96.69V22.91H94.77V7.15002H94.71L87.5 22.91H85.85L78.69 7.15002H78.64V22.91H76.71V5.21002ZM112.55 5.21002H102V22.91H112.55V21.31H103.93V14.78H112.26V13.17H103.93V6.81003H112.55V5.21002ZM117.86 5.21002H128.41V6.81003H119.79V13.17H128.12V14.78H119.79V21.31H128.41V22.91H117.86V5.21002ZM136.32 5.21002H133.72V22.91H135.64V7.34003H135.7L147.13 22.91H149.06V5.21002H147.13V19.9H147.08L136.32 5.21002ZM154.37 5.21002H156.3V21.31H164.27V22.91H154.37V5.21002ZM169.57 5.21002H171.5V22.91H169.57V5.21002ZM176.81 5.21002H179.42L190.18 19.9H190.23V5.21002H192.16V22.91H190.23L178.79 7.34003H178.74V22.91H176.81V5.21002ZM200.07 5.21002H197.46V22.91H199.39V7.34003H199.44L210.88 22.91H212.81V5.21002H210.88V19.9H210.83L200.07 5.21002ZM223.66 15.35H231.14L227.44 7.22003L223.66 15.35ZM226.36 5.21002H228.51L236.8 22.91H234.69L231.9 16.95H222.94L220.13 22.91H218.12L226.36 5.21002ZM244.71 5.21002H242.1V22.91H244.03V7.34003H244.08L255.52 22.91H257.45V5.21002H255.52V19.9H255.47L244.71 5.21002Z" fill="#63605E"/>
<path fill-rule="evenodd" clip-rule="evenodd" d="M0 10.95V88.23H16.85V61.14H17.05L32.98 88.23H52.06L31.46 56.67L52.66 31.91H32.68L17.05 52.31H16.85V0L0 10.95ZM78.77 74.43C89.32 74.43 92.87 65.5 92.87 60.02C92.87 53.22 88.2 45.71 78.66 45.71C69.12 45.71 64.76 53.83 64.76 60.22C64.76 65.5 68.62 74.43 78.76 74.43H78.77ZM109.71 88.23H92.86V82.14H92.66C89.82 87.62 82.82 90.15 76.22 90.15C58.36 90.15 47.91 76.15 47.91 60.02C47.91 41.55 61.2 29.99 76.22 29.99C85.45 29.99 90.63 34.45 92.66 37.9H92.86V31.91H109.71V88.22V88.23ZM152.02 88.23H167.95V88.22V31.91H151.11V62.86C151.11 71.79 146.34 74.32 141.47 74.32C132.44 74.32 132.44 66.91 132.44 63.06V31.91H115.6V65.6C115.6 73.31 116.21 77.37 120.67 82.95C125.64 89.24 133.76 90.05 137.21 90.05C141.47 90.05 148.37 89.44 151.82 82.24H152.02V88.23ZM218.16 60.12C218.16 53.42 213.29 45.71 204.06 45.71C194.83 45.71 189.96 53.42 189.96 60.12C189.96 67.22 195.24 74.43 204.06 74.43C212.88 74.43 218.16 67.23 218.16 60.12ZM173.82 31.91H189.65V38.1H189.96C193.31 33.84 198.89 29.99 207.51 29.99C227.5 29.99 235 47.54 235 60.63C235 76.87 223.64 90.16 207.61 90.16C197.46 90.16 192.69 85.29 190.66 83.16V109.19L173.82 120.15V31.92V31.91ZM277.3 88.23H293.23V88.22V31.91H276.39V62.86C276.39 71.79 271.62 74.32 266.75 74.32C257.72 74.32 257.72 66.91 257.72 63.06V31.91H240.88V65.6C240.88 73.31 241.49 77.37 245.95 82.95C250.92 89.24 259.04 90.05 262.49 90.05C266.75 90.05 273.65 89.44 277.1 82.24H277.3V88.23ZM299.1 31.91H314.83V37.9H315.03C316.75 35.16 320.31 29.99 330.35 29.99C335.73 29.99 341.71 32.22 344.76 34.86C347.8 37.5 351.25 41.96 351.25 53.02V88.23H334.41V57.48C334.41 53.52 334.41 45.81 325.58 45.81C315.94 45.81 315.94 54.13 315.94 57.58V88.22H299.1V31.91ZM373.96 0L357.12 10.95V88.23H373.96V61.14H374.17L390.1 88.23H409.17L388.58 56.67L409.78 31.91H389.79L374.17 52.31H373.96V0ZM430.37 31.91H413.53V88.22H430.37V31.91ZM478.15 87.92H484.83V32.42H477.73V61.74C477.73 71.48 475.2 75.13 471.95 78.38C468.4 81.94 464.04 82.85 460.18 82.85C456.32 82.85 451.15 81.93 447.29 77.57C444.85 74.53 443.33 69.96 443.33 62.96V32.42H436.23V63.06C436.23 68.95 437.14 76.05 441.1 80.92C443.54 83.96 449.22 89.24 460.18 89.24C470.54 89.24 475.91 83.46 477.94 79.3H478.15V87.92ZM539.31 87.92H532.62V79.3H532.42C530.39 83.46 525.01 89.24 514.66 89.24C503.7 89.24 498.02 83.96 495.58 80.92C491.62 76.05 490.71 68.95 490.71 63.06V32.42H497.81V62.96C497.81 69.96 499.33 74.53 501.77 77.57C505.63 81.93 510.8 82.85 514.66 82.85C518.52 82.85 522.88 81.94 526.43 78.38C529.68 75.13 532.21 71.48 532.21 61.74V32.42H539.31V87.92ZM545.19 38.81H552.48V87.92H559.58V38.81H572.87V32.42H559.58V19.41L552.48 23.79V32.42H545.19V38.81ZM585.84 32.42H578.74V87.92H585.84V32.42ZM598.83 71.5L598.83 71.48L598.84 71.5H598.83ZM598.83 71.5C599.039 82.031 606.232 82.85 608.77 82.85C615.47 82.85 619.12 78.89 619.12 72.91C619.12 66.1461 613.669 64.0353 609.536 62.4348C609.019 62.2346 608.523 62.0423 608.06 61.85L608.014 61.8344C602.331 59.9036 593.35 56.8519 593.35 46.43C593.35 38.62 598.93 31.01 609.18 31.01C617.5 31.01 624.4 37.4 624.3 46.13H617.2C616.69 39.33 612.03 37.41 608.88 37.41C603.2 37.41 600.46 41.98 600.46 45.73C600.46 51.62 606.35 53.65 610.41 54.96C616.9 57.09 626.24 60.64 626.24 72.11C626.34 81.65 620.56 89.26 608.79 89.26C601.08 89.26 591.44 83.98 591.74 71.5H598.83ZM682.73 56.37C680.5 43.28 669.84 37.4 661.02 37.4C652.2 37.4 641.44 43.28 639.41 56.37H682.73ZM639.4 62.76C639.91 73.62 650.05 82.85 660.91 82.85C671.06 82.65 678.26 76.66 680.8 69.76H688.31C684.45 80.82 673.8 89.24 661.02 89.24C645.5 89.24 632.1 76.66 632.1 60.22C632.1 43.78 644.78 31.3 660.92 31C673.1 31.1 681.72 38.3 685.68 45.2C689.43 51.19 690.25 57.38 689.94 62.75H639.41L639.4 62.76ZM692.32 38.81H699.61V87.92H706.71V38.81H720V32.42H706.71V19.41L699.61 23.79V32.42H692.32V38.81Z" fill="#292008"/>
</g>
<defs>
<clipPath id="clip0_707_141">
<rect width="720" height="120" fill="white"/>
</clipPath>
</defs>
</svg>
